<svg version="1.1" xmlns="http://www.w3.org/2000/svg" width="243" height="238">
<path d="M0 0 C80.19 0 160.38 0 243 0 C243 78.54 243 157.08 243 238 C162.81 238 82.62 238 0 238 C0 159.46 0 80.92 0 0 Z " fill="#FDFEFE" transform="translate(0,0)"/>
<path d="M0 0 C3.92915685 -0.74841083 6.54209023 0.03211471 9.9375 1.9375 C24.65547768 12.03862157 29.27773311 31.61165724 33 48 C33.20753906 48.88816406 33.41507812 49.77632812 33.62890625 50.69140625 C34.06913394 53.4300859 34.09590091 56.0402243 34.0625 58.8125 C34.05347656 59.78832031 34.04445313 60.76414063 34.03515625 61.76953125 C34.02355469 62.50558594 34.01195313 63.24164063 34 64 C34.99 64 35.98 64 37 64 C36.9175 62.741875 36.835 61.48375 36.75 60.1875 C36.80475724 40.85819461 44.39664727 17.93514182 58 4 C61.48153948 1.23993617 64.19854572 -0.01335757 68.75 0.0625 C72 1 72 1 74 2.125 C75.66299961 5.24312427 74.84309589 7.68783759 74 11 C71 13 71 13 68.3125 12.625 C67.1678125 12.315625 67.1678125 12.315625 66 12 C65.67 10.35 65.34 8.7 65 7 C66.65 6.67 68.3 6.34 70 6 C70 7.65 70 9.3 70 11 C70.66 10.67 71.32 10.34 72 10 C72.04254356 8.00045254 72.04080783 5.99958364 72 4 C70.99163938 2.76732652 70.99163938 2.76732652 68.93359375 2.90234375 C67.69802734 2.91974609 67.69802734 2.91974609 66.4375 2.9375 C65.61121094 2.94652344 64.78492188 2.95554687 63.93359375 2.96484375 C62.97646484 2.98224609 62.97646484 2.98224609 62 3 C61.79375 3.556875 61.5875 4.11375 61.375 4.6875 C59.81817549 7.30579576 57.87437717 8.70966822 55.52001953 10.58886719 C52.92917309 12.99411814 51.44807439 15.98506834 49.9375 19.125 C49.43162354 20.15802246 49.43162354 20.15802246 48.91552734 21.21191406 C43.1242883 33.61419452 38.18351335 50.23636787 39 64 C39.495 64.66 39.99 65.32 40.5 66 C42.36762594 68.49016793 42.2532832 69.96060155 42 73 C45.06193316 72.70545162 45.93327404 72.07782494 47.97265625 69.69921875 C48.66230469 68.70535156 49.35195312 67.71148437 50.0625 66.6875 C54.88210703 59.95607494 60.29581252 53.98731503 66 48 C66.72832031 47.20722656 67.45664063 46.41445312 68.20703125 45.59765625 C83.23680389 29.73134709 106.54994683 15.30252233 128.77880859 14.59423828 C129.90923584 14.57852783 129.90923584 14.57852783 131.0625 14.5625 C131.77744629 14.55202637 132.49239258 14.54155273 133.22900391 14.53076172 C138.84332788 14.62808911 142.07663355 16.07663355 146 20 C146.25021549 23.06513973 146.23941335 24.26296219 145 27 C141.17283892 31.17892221 136.75513231 34.61531046 132.31640625 38.1171875 C129.23863794 40.6188474 127.71873627 42.37155675 126 46 C125.18498965 53.69538098 125.18498965 53.69538098 127 61 C127.42766537 65.18618599 127.44703752 68.88240621 125.875 72.8125 C123.51869604 75.56152129 121.16801527 77.25435894 118 79 C116.68 79 115.36 79 114 79 C114.474375 79.7425 114.94875 80.485 115.4375 81.25 C118.27380636 86.24189919 118.76618256 91.34610115 118 97 C116.040334 102.92293671 113.34475336 107.71442885 107.96875 111.0390625 C103.49004343 113.22509785 99.01474446 115 94 115 C94 115.66 94 116.32 94 117 C94.5775 117.185625 95.155 117.37125 95.75 117.5625 C99.16962307 119.74725919 100.77179014 122.22232421 102 126 C103.40913816 135.85202525 101.78732342 142.10704911 96 150 C94.73734381 151.92927592 93.48738812 153.86692119 92.25 155.8125 C91.67765625 156.68519531 91.1053125 157.55789062 90.515625 158.45703125 C86.51085754 165.17637047 86.22703759 171.2890015 87 179 C88.44624946 183.53110668 90.96242625 187.3549115 94 191 C88.20740753 188.43959808 84.23382513 183.88537162 81.75390625 178.0859375 C81.38136719 177.06757813 81.00882813 176.04921875 80.625 175 C77.75222282 167.53641224 72.94313997 163.91449476 66.6640625 159.2734375 C50.15663659 146.93512257 46.10362883 129.24023557 42 110 C41.67 110 41.34 110 41 110 C40.24991617 114.05612081 39.85028663 117.9483474 39.75390625 122.0703125 C39.70459961 123.78734375 39.70459961 123.78734375 39.65429688 125.5390625 C39.59370104 127.90616772 39.53634295 130.27335832 39.48242188 132.640625 C39.25690444 140.2486473 38.46023518 147.52898963 37 155 C36.01 155.33 35.02 155.66 34 156 C32.82309906 145.15651465 31.79368509 134.34672302 31.34204102 123.44604492 C31.54489623 115.14053383 31.54489623 115.14053383 29 108 C28.78085938 109.10214844 28.56171875 110.20429688 28.3359375 111.33984375 C26.09000819 122.2424132 23.24255927 132.69624331 19 143 C18.60683594 143.95648438 18.21367188 144.91296875 17.80859375 145.8984375 C14.52512592 152.42420116 9.40742832 156.08434306 3.46899414 160.07177734 C-4.3558512 165.34567311 -8.12414833 171.73686378 -11.87304688 180.16601562 C-14.18193846 185.07765772 -16.6065518 187.79397023 -21 191 C-21.66 190.67 -22.32 190.34 -23 190 C-22.21625 189.13375 -21.4325 188.2675 -20.625 187.375 C-15.99276886 181.7060939 -15.54152532 176.11214356 -15.69140625 168.953125 C-16.36271603 162.52894534 -19.8556314 158.15697751 -23.5 153 C-24.6717348 151.33689254 -25.83876424 149.67045515 -27 148 C-27.44214844 147.36578125 -27.88429687 146.7315625 -28.33984375 146.078125 C-32.05646567 139.88816395 -31.94117754 133.00299895 -31 126 C-29.79366208 122.62041209 -28.38065157 119.70254249 -26 117 C-25.01 116.67 -24.02 116.34 -23 116 C-23 115.34 -23 114.68 -23 114 C-23.94875 114.103125 -24.8975 114.20625 -25.875 114.3125 C-31.24196852 114.27984096 -35.64237432 111.98870051 -40 109 C-46.1293561 102.75942574 -47.33520913 97.33450425 -47.30078125 88.7734375 C-46.85718559 84.68313987 -45.36332781 82.32342973 -43 79 C-43.70125 79.103125 -44.4025 79.20625 -45.125 79.3125 C-49.27376713 78.86154705 -51.06714219 76.86768319 -54 74 C-55.81761082 71.05400662 -56.25157289 68.87996145 -56.1875 65.4375 C-56.18105469 64.67308594 -56.17460938 63.90867188 -56.16796875 63.12109375 C-56 61 -56 61 -55 58 C-54.0854936 50.93862146 -54.69808659 45.87534428 -59.015625 40.12890625 C-61.93393549 36.99804165 -65.1794126 34.43930671 -68.6328125 31.921875 C-71.21397369 29.82627879 -73.10981867 27.73315875 -75 25 C-75.0625 21.9375 -75.0625 21.9375 -74 19 C-69.30377578 14.54460779 -66.23507776 13.6991751 -59.9609375 13.7890625 C-31.25064733 15.8343866 -5.71577372 34.88875399 12.55371094 55.77636719 C19.47606466 64.00499896 25.37032542 72.85351636 31 82 C31.40329079 80.01292485 31.7335227 78.01000024 32 76 C31.02149805 74.97895449 30.02019573 73.9793879 29 73 C28.625 70 28.625 70 29 67 C29.50144531 66.55140625 30.00289063 66.1028125 30.51953125 65.640625 C32.21711665 64.07535125 32.21711665 64.07535125 32.28515625 61.671875 C30.82158267 42.46568134 25.43280357 18.77676705 11 5 C7.97552195 3.1349052 5.78093615 2.77114894 2.25 2.875 C1.05117187 2.90207031 1.05117187 2.90207031 -0.171875 2.9296875 C-1.07679687 2.96449219 -1.07679687 2.96449219 -2 3 C-1.34 2.01 -0.68 1.02 0 0 Z " fill="#F2F6F6" transform="translate(86,27)"/>
<path d="M0 0 C3.92915685 -0.74841083 6.54209023 0.03211471 9.9375 1.9375 C24.65547768 12.03862157 29.27773311 31.61165724 33 48 C33.20753906 48.88816406 33.41507813 49.77632812 33.62890625 50.69140625 C34.06913394 53.4300859 34.09590091 56.0402243 34.0625 58.8125 C34.05347656 59.78832031 34.04445312 60.76414063 34.03515625 61.76953125 C34.02355469 62.50558594 34.01195312 63.24164063 34 64 C34.99 64 35.98 64 37 64 C36.9175 62.741875 36.835 61.48375 36.75 60.1875 C36.80475724 40.85819461 44.39664727 17.93514182 58 4 C61.48153948 1.23993617 64.19854572 -0.01335757 68.75 0.0625 C72 1 72 1 74 2.125 C75.66299961 5.24312427 74.84309589 7.68783759 74 11 C71 13 71 13 68.3125 12.625 C67.1678125 12.315625 67.1678125 12.315625 66 12 C65.505 9.525 65.505 9.525 65 7 C67.475 6.505 67.475 6.505 70 6 C70 7.65 70 9.3 70 11 C70.66 10.67 71.32 10.34 72 10 C72.04254356 8.00045254 72.04080783 5.99958364 72 4 C70.99163938 2.76732652 70.99163938 2.76732652 68.93359375 2.90234375 C67.69802734 2.91974609 67.69802734 2.91974609 66.4375 2.9375 C65.61121094 2.94652344 64.78492188 2.95554687 63.93359375 2.96484375 C62.97646484 2.98224609 62.97646484 2.98224609 62 3 C61.79375 3.556875 61.5875 4.11375 61.375 4.6875 C59.81817549 7.30579576 57.87437717 8.70966822 55.52001953 10.58886719 C52.92917309 12.99411814 51.44807439 15.98506834 49.9375 19.125 C49.43162354 20.15802246 49.43162354 20.15802246 48.91552734 21.21191406 C43.1242883 33.61419452 38.18351335 50.23636787 39 64 C39.7425 64.99 39.7425 64.99 40.5 66 C42 68 42 68 42.375 70.5625 C42 73 42 73 40.4609375 74.3359375 C38.75144058 75.93349335 38.75144058 75.93349335 38.890625 78.41015625 C39.00921875 79.28542969 39.1278125 80.16070312 39.25 81.0625 C39.35828125 81.94035156 39.4665625 82.81820312 39.578125 83.72265625 C39.89525201 86.02118108 39.89525201 86.02118108 41 88 C41.40089844 87.33355469 41.80179688 86.66710937 42.21484375 85.98046875 C46.62832202 78.82482938 51.50114714 72.35364249 57 66 C57.845625 65.01902344 58.69125 64.03804688 59.5625 63.02734375 C70.05799313 51.09117929 85.51585503 35.00827691 101.9375 32.5625 C106.30875768 33.18696538 107.88965352 34.88965352 111 38 C113.57081703 45.71245108 112.72363687 54.53066965 109.31640625 61.84375 C105.58969067 67.94804378 100.64516744 70.6440572 93.8515625 72.4296875 C90.68137484 73.06372503 87.52067703 73.4766936 84.3125 73.875 C70.37581459 75.75630203 58.7971287 81.31216168 46.68212891 88.07177734 C44.81388117 89.10270302 42.92125368 90.07164228 41 91 C41.01160156 91.63164063 41.02320313 92.26328125 41.03515625 92.9140625 C41.08616199 97.97091763 40.96885656 102.9586389 40.5625 108 C40.17715601 112.82750392 39.93118572 117.63558245 39.78125 122.4765625 C39.74443115 123.64960938 39.7076123 124.82265625 39.66967773 126.03125 C39.59986265 128.3722022 39.53654608 130.7133601 39.48071289 133.0546875 C39.25450247 140.51908875 38.42126157 147.66858292 37 155 C36.01 155.33 35.02 155.66 34 156 C32.34860767 141.5882213 31.43699593 127.20785215 30.88476562 112.71386719 C30.74853072 109.21223531 30.59330793 105.71174689 30.4375 102.2109375 C30.34781031 99.95837875 30.25922749 97.70577559 30.171875 95.453125 C30.12407898 94.41971985 30.07628296 93.3863147 30.02703857 92.32159424 C29.8229647 86.41831577 30.44791045 81.68225393 32 76 C30.66666667 74.33333333 30.66666667 74.33333333 29 73 C28.625 70 28.625 70 29 67 C29.50144531 66.55140625 30.00289062 66.1028125 30.51953125 65.640625 C32.21711665 64.07535125 32.21711665 64.07535125 32.28515625 61.671875 C30.82158267 42.46568134 25.43280357 18.77676705 11 5 C7.97552195 3.1349052 5.78093615 2.77114894 2.25 2.875 C1.05117187 2.90207031 1.05117187 2.90207031 -0.171875 2.9296875 C-1.07679687 2.96449219 -1.07679687 2.96449219 -2 3 C-1.34 2.01 -0.68 1.02 0 0 Z " fill="#4DAEAF" transform="translate(86,27)"/>
<path d="M0 0 C22.34001524 7.55974485 38.6972752 20.27443795 55 37 C54.505 37.99 54.505 37.99 54 39 C53.3915625 38.33355469 52.783125 37.66710937 52.15625 36.98046875 C36.5668842 20.58870913 14.45522304 7.24033395 -8.4609375 4.73046875 C-12.06013309 4.65687925 -15.51291551 5.12822888 -19 6 C-18.12405899 10.08772473 -16.97141326 12.27377035 -13.75 14.8125 C-8.95238228 18.59639515 -5.71881884 23.56236232 -3 29 C-2.90414869 30.64356807 -2.87016489 32.29114642 -2.875 33.9375 C-2.87113281 35.25041016 -2.87113281 35.25041016 -2.8671875 36.58984375 C-3 39 -3 39 -4 42 C-4.52747059 47.56430962 -4.52747059 47.56430962 -2.58984375 52.64453125 C1.16903908 56.06324368 4.81938642 56.24078188 9.75 56.8125 C10.63816406 56.93302734 11.52632812 57.05355469 12.44140625 57.17773438 C14.62582462 57.47133899 16.81083734 57.74464009 19 58 C16.61069411 59.59287059 14.65777786 60.58662398 12.0625 61.6875 C8.39066931 63.5267964 6.40708734 65.30478983 4.62109375 69.01171875 C3.05401986 74.02832635 3.38629245 78.96826218 5.1875 83.875 C7.27138392 87.46790331 8.09183948 88.61585982 12 90 C19.29195831 91.06390867 24.48999507 89.70595026 30.98046875 86.4375 C43.76013483 80.35351925 56.89921614 77.56389328 71 78 C68.35967761 79.76021493 65.89949704 81.03728778 63.02734375 82.35546875 C62.04443359 82.81373047 61.06152344 83.27199219 60.04882812 83.74414062 C58.00455895 84.69248646 55.95774517 85.63536987 53.90820312 86.57226562 C47.07674888 89.7727065 41.04591736 93.49794703 35 98 C33.9275 98.763125 32.855 99.52625 31.75 100.3125 C25.88869527 106.04059326 22.28554946 112.6453707 21.75 120.8125 C21.8405749 125.68542958 23.00926564 129.84197704 26.39453125 133.51171875 C29.07390841 135.87906718 31.41163733 137.67378521 35 138 C36.5778125 138.2165625 36.5778125 138.2165625 38.1875 138.4375 C44.90835093 137.66625481 49.92586879 133.69572501 54.125 128.5 C62.15331029 116.73399153 66.58384 103.40873569 71 90 C71.33 90 71.66 90 72 90 C71.41908704 102.08298951 68.29041164 113.63290107 63.5 124.6875 C63.21560059 125.34637207 62.93120117 126.00524414 62.63818359 126.68408203 C59.04080916 134.61880364 54.23342945 138.49935285 47.22070312 143.16210938 C39.55079773 148.41603594 35.81856003 154.86568027 32.12695312 163.16601562 C29.81806154 168.07765772 27.3934482 170.79397023 23 174 C22.34 173.67 21.68 173.34 21 173 C21.78375 172.13375 22.5675 171.2675 23.375 170.375 C28.00723114 164.7060939 28.45847468 159.11214356 28.30859375 151.953125 C27.63728397 145.52894534 24.1443686 141.15697751 20.5 136 C19.3282652 134.33689254 18.16123576 132.67045515 17 131 C16.55785156 130.36578125 16.11570313 129.7315625 15.66015625 129.078125 C11.94353433 122.88816395 12.05882246 116.00299895 13 109 C14.20633792 105.62041209 15.61934843 102.70254249 18 100 C18.99 99.67 19.98 99.34 21 99 C21 98.34 21 97.68 21 97 C20.05125 97.103125 19.1025 97.20625 18.125 97.3125 C12.75803148 97.27984096 8.35762568 94.98870051 4 92 C-2.1293561 85.75942574 -3.33520913 80.33450425 -3.30078125 71.7734375 C-2.85718559 67.68313987 -1.36332781 65.32342973 1 62 C0.29875 62.103125 -0.4025 62.20625 -1.125 62.3125 C-5.27376713 61.86154705 -7.06714219 59.86768319 -10 57 C-11.81761082 54.05400662 -12.25157289 51.87996145 -12.1875 48.4375 C-12.18105469 47.67308594 -12.17460937 46.90867188 -12.16796875 46.12109375 C-12 44 -12 44 -11 41 C-10.0854936 33.93862146 -10.69808659 28.87534428 -15.015625 23.12890625 C-17.93393549 19.99804165 -21.1794126 17.43930671 -24.6328125 14.921875 C-27.21397369 12.82627879 -29.10981867 10.73315875 -31 8 C-31.0625 4.9375 -31.0625 4.9375 -30 2 C-21.34645539 -6.20977309 -10.5330909 -3.12442247 0 0 Z " fill="#175062" transform="translate(42,44)"/>
<path d="M0 0 C0.71494629 -0.01047363 1.42989258 -0.02094727 2.16650391 -0.03173828 C7.78082788 0.06558911 11.01413355 1.51413355 14.9375 5.4375 C15.18771549 8.50263973 15.17691335 9.70046219 13.9375 12.4375 C10.11033892 16.61642221 5.69263231 20.05281046 1.25390625 23.5546875 C-1.82386206 26.0563474 -3.34376373 27.80905675 -5.0625 31.4375 C-5.87751035 39.13288098 -5.87751035 39.13288098 -4.0625 46.4375 C-3.63483463 50.62368599 -3.61546248 54.31990621 -5.1875 58.25 C-7.54380396 60.99902129 -9.89448473 62.69185894 -13.0625 64.4375 C-14.3825 64.4375 -15.7025 64.4375 -17.0625 64.4375 C-16.588125 65.18 -16.11375 65.9225 -15.625 66.6875 C-12.78869364 71.67939919 -12.29631744 76.78360115 -13.0625 82.4375 C-15.022166 88.36043671 -17.71774664 93.15192885 -23.09375 96.4765625 C-27.57245657 98.66259785 -32.04775554 100.4375 -37.0625 100.4375 C-37.0625 101.0975 -37.0625 101.7575 -37.0625 102.4375 C-36.19625 102.7159375 -36.19625 102.7159375 -35.3125 103 C-31.89287693 105.18475919 -30.29070986 107.65982421 -29.0625 111.4375 C-27.65336184 121.28952525 -29.27517658 127.54454911 -35.0625 135.4375 C-36.32515619 137.36677592 -37.57511188 139.30442119 -38.8125 141.25 C-39.38484375 142.12269531 -39.9571875 142.99539062 -40.546875 143.89453125 C-44.55164246 150.61387047 -44.83546241 156.7265015 -44.0625 164.4375 C-42.61625054 168.96860668 -40.10007375 172.7924115 -37.0625 176.4375 C-42.85509247 173.87709808 -46.82867487 169.32287162 -49.30859375 163.5234375 C-49.68113281 162.50507813 -50.05367187 161.48671875 -50.4375 160.4375 C-53.31027718 152.97391224 -58.11936003 149.35199476 -64.3984375 144.7109375 C-79.7871164 133.20881914 -84.97456182 116.72899266 -88.0625 98.4375 C-88.1640625 95.41015625 -88.1640625 95.41015625 -88.0625 93.4375 C-86.32863753 96.03829371 -85.39354766 98.00533062 -84.36328125 100.90234375 C-84.04456055 101.77955078 -83.72583984 102.65675781 -83.39746094 103.56054688 C-83.06004883 104.48931641 -82.72263672 105.41808594 -82.375 106.375 C-77.96019396 118.24763146 -72.8336064 131.73706613 -61.41015625 138.484375 C-57.00313623 140.27358113 -52.70736321 140.20454163 -48.0625 139.4375 C-42.91323389 136.95481812 -40.38362579 133.920468 -38.375 128.625 C-37.05918042 119.41426295 -39.46215823 113.38034209 -44.90625 105.90625 C-52.95523703 96.69074311 -64.16247452 91.47388944 -75.0625 86.4375 C-76.20589844 85.90640625 -77.34929687 85.3753125 -78.52734375 84.828125 C-81.03189565 83.6806083 -83.54155417 82.54842528 -86.0625 81.4375 C-86.0625 81.1075 -86.0625 80.7775 -86.0625 80.4375 C-70.77619942 79.45128706 -55.97669448 84.39343614 -42.5 91.25 C-36.88981065 93.18806541 -30.99302189 93.35484467 -25.3046875 91.57421875 C-22.83437065 90.60159887 -22.83437065 90.60159887 -21.8125 87.9375 C-21.44125 86.7 -21.44125 86.7 -21.0625 85.4375 C-20.7325 84.7775 -20.4025 84.1175 -20.0625 83.4375 C-19.6609794 78.64241745 -19.47740274 74.05512183 -21.125 69.5 C-25.57060468 64.76758212 -30.93086015 62.93912609 -37.0625 61.4375 C-37.0625 61.1075 -37.0625 60.7775 -37.0625 60.4375 C-35.21785156 60.29054688 -35.21785156 60.29054688 -33.3359375 60.140625 C-31.70304288 59.99047377 -30.07023452 59.83938228 -28.4375 59.6875 C-27.62925781 59.625625 -26.82101563 59.56375 -25.98828125 59.5 C-20.56657997 58.97105353 -17.28625965 57.92843069 -13.0625 54.4375 C-11.56751087 51.44752175 -11.94672554 48.73707225 -12.0625 45.4375 C-12.3925 44.4475 -12.7225 43.4575 -13.0625 42.4375 C-14.01512959 35.19027998 -13.12823609 29.97360413 -9.0625 23.875 C-5.51859525 19.55586608 -1.37658989 15.96720991 2.9375 12.4375 C2.67073796 10.45258358 2.67073796 10.45258358 1.9375 8.4375 C-10.77544378 4.19985207 -24.87147885 10.59229381 -36.25 16.1875 C-47.56425606 21.98662215 -57.31448732 29.30167245 -66.50390625 38.0546875 C-68.61483012 40.02058607 -70.71516335 41.7695102 -73.0625 43.4375 C-64.47697582 24.51945722 -37.77395631 10.07151637 -19.3359375 2.921875 C-12.89564441 0.81952645 -6.730928 0.09354508 0 0 Z " fill="#155061" transform="translate(217.0625,41.5625)"/>
<path d="M0 0 C3.52734375 1.50390625 3.52734375 1.50390625 6.9375 3.5625 C7.84580566 4.10886108 7.84580566 4.10886108 8.77246094 4.66625977 C17.68557338 10.12595664 25.36251138 16.89892362 33 24 C33.60585937 24.55171875 34.21171875 25.1034375 34.8359375 25.671875 C40.13167932 30.69412781 44.44979701 36.48995836 48.75244141 42.35644531 C49.91408409 43.88681294 51.1634281 45.34950141 52.41796875 46.8046875 C59.68859462 55.88975275 58.78731053 64.93391317 58 76 C57.67 76 57.34 76 57 76 C57 70.06 57 64.12 57 58 C55.68 57.34 54.36 56.68 53 56 C51.90171875 55.41605469 50.8034375 54.83210938 49.671875 54.23046875 C36.22883703 47.16647402 23.00842045 42.96986848 8.00097656 40.60644531 C-0.75500667 39.08258454 -6.81010389 35.17426816 -12 28 C-14.59132697 24.14483286 -14.33163251 20.04333414 -14.3125 15.5625 C-14.32861328 14.81162109 -14.34472656 14.06074219 -14.36132812 13.28710938 C-14.36536014 8.70270678 -13.96482397 5.71470919 -11 2 C-7.27254655 -0.48496897 -4.31862822 -0.59294895 0 0 Z " fill="#4EAEAF" transform="translate(59,60)"/>
<path d="M0 0 C1.23427997 3.7028399 0.60940845 4.96840076 -0.58984375 8.63671875 C-1.14212646 10.32800903 -1.14212646 10.32800903 -1.70556641 12.0534668 C-2.11210449 13.25269775 -2.51864258 14.45192871 -2.9375 15.6875 C-3.34919434 16.90671143 -3.76088867 18.12592285 -4.18505859 19.38208008 C-14.58280848 49.46769995 -14.58280848 49.46769995 -26.9375 56.5 C-31.19328885 58.34390078 -34.39118177 58.59468622 -39 58 C-44.10209922 55.30455136 -47.17381037 52.4785689 -49 47 C-49.71100789 39.78501835 -49.3892466 33.91693243 -45 28 C-33.43902921 14.17565297 -16.53338275 6.39376911 0 0 Z " fill="#4CAEAF" transform="translate(114,123)"/>
<path d="M0 0 C18.77189031 6.40333781 38.36268657 15.39341226 49 33 C50.7019824 38.10594721 51.03016629 44.03226707 49.24609375 49.171875 C47.37435143 52.60707267 45.32900018 55.00028809 42 57 C36.78478782 57.95198318 31.35406745 58.25499557 26.58203125 55.7109375 C24.49010329 53.93866584 22.75247406 52.10699755 21 50 C20.47019531 49.39800781 19.94039062 48.79601562 19.39453125 48.17578125 C11.76867875 38.82480017 7.78375158 27.26842964 4.125 15.9375 C3.7228125 14.72900391 3.320625 13.52050781 2.90625 12.27539062 C0 3.42319037 0 3.42319037 0 0 Z " fill="#4CAEAE" transform="translate(128,123)"/>
<path d="M0 0 C0.93328125 -0.020625 1.8665625 -0.04125 2.828125 -0.0625 C8.19318953 -0.09289697 12.00887199 0.19681297 16.625 3.25 C20.97421458 7.9518536 21.98131371 11.71941139 21.91015625 17.9609375 C21.46723476 21.51644424 19.95325076 23.59838108 17.625 26.25 C12.79883417 29.1885534 8.10251235 29.0922071 2.625 28.25 C-0.95851523 27.07785601 -4.38107452 25.54376174 -7.83276367 24.03491211 C-20.45638273 18.53530698 -32.69425054 16.58490207 -46.375 16.25 C-43.65692632 13.07726672 -40.19245993 11.25753243 -36.5625 9.3125 C-35.90467529 8.95986084 -35.24685059 8.60722168 -34.5690918 8.24389648 C-28.07126669 4.88835415 -21.49441513 2.9324252 -14.375 1.25 C-13.75310791 1.0749292 -13.13121582 0.8998584 -12.49047852 0.71948242 C-8.39101925 -0.19029948 -4.18215822 0.02291594 0 0 Z " fill="#104F60" transform="translate(174.375,104.75)"/>
<path d="M0 0 C0.54785156 0.39574219 1.09570312 0.79148437 1.66015625 1.19921875 C1.66015625 1.52921875 1.66015625 1.85921875 1.66015625 2.19921875 C0.69078125 2.225 -0.27859375 2.25078125 -1.27734375 2.27734375 C-14.97726212 2.79191089 -27.00323407 5.7351726 -39.65234375 10.94921875 C-46.18371089 13.61739008 -52.20030695 15.84079108 -59.33984375 14.19921875 C-62.53152994 12.44053452 -63.80393987 11.09239188 -65.65234375 8.01171875 C-67.0070186 2.46986709 -67.25263446 -2.04039916 -64.58984375 -7.17578125 C-49.70914174 -24.53660026 -15.63514213 -9.68616122 0 0 Z " fill="#0F4E60" transform="translate(113.33984375,118.80078125)"/>
<path d="M0 0 C3.92915685 -0.74841083 6.54209023 0.03211471 9.9375 1.9375 C24.65547768 12.03862157 29.27773311 31.61165724 33 48 C33.20753906 48.88816406 33.41507813 49.77632812 33.62890625 50.69140625 C34.06913394 53.4300859 34.09590091 56.0402243 34.0625 58.8125 C34.05347656 59.78832031 34.04445312 60.76414063 34.03515625 61.76953125 C34.02355469 62.50558594 34.01195312 63.24164063 34 64 C34.99 64 35.98 64 37 64 C36.9175 62.741875 36.835 61.48375 36.75 60.1875 C36.80475724 40.85819461 44.39664727 17.93514182 58 4 C61.48153948 1.23993617 64.19854572 -0.01335757 68.75 0.0625 C72 1 72 1 74 2.125 C75.66299961 5.24312427 74.84309589 7.68783759 74 11 C71 13 71 13 68.3125 12.625 C67.1678125 12.315625 67.1678125 12.315625 66 12 C65.505 9.525 65.505 9.525 65 7 C67.475 6.505 67.475 6.505 70 6 C70 7.65 70 9.3 70 11 C70.66 10.67 71.32 10.34 72 10 C72.04254356 8.00045254 72.04080783 5.99958364 72 4 C70.99163938 2.76732652 70.99163938 2.76732652 68.93359375 2.90234375 C67.69802734 2.91974609 67.69802734 2.91974609 66.4375 2.9375 C65.61121094 2.94652344 64.78492188 2.95554687 63.93359375 2.96484375 C62.97646484 2.98224609 62.97646484 2.98224609 62 3 C61.79375 3.556875 61.5875 4.11375 61.375 4.6875 C59.81817549 7.30579576 57.87437717 8.70966822 55.52001953 10.58886719 C52.92917309 12.99411814 51.44807439 15.98506834 49.9375 19.125 C49.43162354 20.15802246 49.43162354 20.15802246 48.91552734 21.21191406 C43.1242883 33.61419452 38.18351335 50.23636787 39 64 C39.7425 64.99 39.7425 64.99 40.5 66 C42 68 42 68 42.375 70.5625 C42 73 42 73 40.45751953 74.38256836 C38.79206662 75.88404503 38.79206662 75.88404503 38.92138672 77.99047852 C39.04787598 78.75803467 39.17436523 79.52559082 39.3046875 80.31640625 C40.1743542 86.8673425 40.14985071 93.33663607 40.125 99.9375 C40.12161621 101.24058105 40.11823242 102.54366211 40.11474609 103.88623047 C40.07621309 112.80236165 39.91496619 121.71324687 39.625 130.625 C39.57883545 132.22976196 39.57883545 132.22976196 39.53173828 133.86694336 C39.26032804 141.03904341 38.33761395 147.95041299 37 155 C36.01 155.33 35.02 155.66 34 156 C32.34860767 141.5882213 31.43699593 127.20785215 30.88476562 112.71386719 C30.74853072 109.21223531 30.59330793 105.71174689 30.4375 102.2109375 C30.34781031 99.95837875 30.25922749 97.70577559 30.171875 95.453125 C30.12407898 94.41971985 30.07628296 93.3863147 30.02703857 92.32159424 C29.8229647 86.41831577 30.44791045 81.68225393 32 76 C30.66666667 74.33333333 30.66666667 74.33333333 29 73 C28.625 70 28.625 70 29 67 C29.50144531 66.55140625 30.00289062 66.1028125 30.51953125 65.640625 C32.21711665 64.07535125 32.21711665 64.07535125 32.28515625 61.671875 C30.82158267 42.46568134 25.43280357 18.77676705 11 5 C7.97552195 3.1349052 5.78093615 2.77114894 2.25 2.875 C1.05117187 2.90207031 1.05117187 2.90207031 -0.171875 2.9296875 C-1.07679687 2.96449219 -1.07679687 2.96449219 -2 3 C-1.34 2.01 -0.68 1.02 0 0 Z " fill="#165162" transform="translate(86,27)"/>
<path d="M0 0 C3.92915685 -0.74841083 6.54209023 0.03211471 9.9375 1.9375 C24.65547768 12.03862157 29.27773311 31.61165724 33 48 C33.20753906 48.88816406 33.41507813 49.77632812 33.62890625 50.69140625 C34.06913394 53.4300859 34.09590091 56.0402243 34.0625 58.8125 C34.05347656 59.78832031 34.04445312 60.76414063 34.03515625 61.76953125 C34.02355469 62.50558594 34.01195312 63.24164063 34 64 C34.99 64 35.98 64 37 64 C36.9175 62.741875 36.835 61.48375 36.75 60.1875 C36.80475724 40.85819461 44.39664727 17.93514182 58 4 C61.48153948 1.23993617 64.19854572 -0.01335757 68.75 0.0625 C72 1 72 1 74 2.125 C75.66299961 5.24312427 74.84309589 7.68783759 74 11 C71 13 71 13 68.3125 12.625 C67.1678125 12.315625 67.1678125 12.315625 66 12 C65.505 9.525 65.505 9.525 65 7 C67.475 6.505 67.475 6.505 70 6 C70 7.65 70 9.3 70 11 C70.66 10.67 71.32 10.34 72 10 C72.04254356 8.00045254 72.04080783 5.99958364 72 4 C70.99163938 2.76732652 70.99163938 2.76732652 68.93359375 2.90234375 C67.69802734 2.91974609 67.69802734 2.91974609 66.4375 2.9375 C65.61121094 2.94652344 64.78492188 2.95554687 63.93359375 2.96484375 C62.97646484 2.98224609 62.97646484 2.98224609 62 3 C61.79375 3.556875 61.5875 4.11375 61.375 4.6875 C59.81817549 7.30579576 57.87437717 8.70966822 55.52001953 10.58886719 C52.92917309 12.99411814 51.44807439 15.98506834 49.9375 19.125 C49.43162354 20.15802246 49.43162354 20.15802246 48.91552734 21.21191406 C43.1242883 33.61419452 38.18351335 50.23636787 39 64 C39.7425 64.99 39.7425 64.99 40.5 66 C42 68 42 68 42.5 70.4375 C41.7681775 74.1880903 39.93749806 75.66335381 37 78 C33 78 33 78 30.75 75.875 C28.71410533 72.53031591 28.414573 70.84709172 29 67 C29.50273438 66.55398437 30.00546875 66.10796875 30.5234375 65.6484375 C32.21598337 64.07491969 32.21598337 64.07491969 32.28515625 61.671875 C30.82158267 42.46568134 25.43280357 18.77676705 11 5 C7.97552195 3.1349052 5.78093615 2.77114894 2.25 2.875 C1.05117187 2.90207031 1.05117187 2.90207031 -0.171875 2.9296875 C-1.07679687 2.96449219 -1.07679687 2.96449219 -2 3 C-1.34 2.01 -0.68 1.02 0 0 Z " fill="#2C5B6C" transform="translate(86,27)"/>
<path d="M0 0 C15.49492199 0.4804627 28.67676491 2.66407483 43 9 C39.07193605 10.30935465 36.70905656 9.05559842 33 7.6875 C23.94248284 4.51403943 15.60977365 2.88790296 6 3 C7.13695312 3.47308594 8.27390625 3.94617188 9.4453125 4.43359375 C26.26070791 11.57670788 44.22405075 20.01915983 52.1484375 37.5390625 C54.11884079 43.23334725 53.3022054 48.71850315 51.05859375 54.171875 C48.94721227 57.81809837 45.74885223 60.12557389 42 62 C36.38415024 62.75837971 31.34465257 62.73994966 26.375 59.8125 C15.53604631 51.46592604 10.67304024 38.46727572 5.85253906 26.14941406 C4.63161162 23.07122242 3.32002109 20.03685834 2 17 C1.01 17 0.02 17 -1 17 C-0.67 11.39 -0.34 5.78 0 0 Z M1 3 C4.6465213 23.67000369 12.31846261 44.23438143 27.8671875 58.7421875 C30.79647834 60.46971799 33.05626927 60.43359106 36.4375 60.4375 C37.54996094 60.45683594 38.66242188 60.47617188 39.80859375 60.49609375 C43.6417582 59.90024077 45.24088354 58.67105955 48 56 C51.73823666 50.71490679 51.75832595 45.23611575 51 39 C48.49622824 29.28678615 39.10352042 22.09647101 31.0625 16.9375 C16.66299994 8.44482391 16.66299994 8.44482391 1 3 Z " fill="#CDDEE1" transform="translate(127,120)"/>
<path d="M0 0 C-1 3 -1 3 -2.7590332 4.05566406 C-3.51531006 4.37245117 -4.27158691 4.68923828 -5.05078125 5.015625 C-5.88883301 5.37591797 -6.72688477 5.73621094 -7.59033203 6.10742188 C-8.48864746 6.48447266 -9.38696289 6.86152344 -10.3125 7.25 C-25.11728233 13.71122065 -39.19350697 20.79597898 -48 35 C-49.88882019 40.66646057 -49.72468122 46.78569626 -47.875 52.4375 C-45.52102719 55.65459617 -43.5898898 57.23892199 -40 59 C-33.74944629 59.80652306 -29.10263291 58.77553685 -24 55 C-10.84288243 42.09808514 -6.37430232 21.95776786 -1 5 C-0.67 5 -0.34 5 0 5 C0.05399736 6.45792884 0.09279177 7.91642712 0.125 9.375 C0.14820313 10.18710938 0.17140625 10.99921875 0.1953125 11.8359375 C0 14 0 14 -2 16 C-2.62301229 17.50646268 -3.18061568 19.0404198 -3.69921875 20.5859375 C-4.01769775 21.51132324 -4.33617676 22.43670898 -4.66430664 23.39013672 C-5.00196045 24.3751416 -5.33961426 25.36014648 -5.6875 26.375 C-10.1799046 39.06340854 -15.65829666 52.88747642 -27.5 60.5 C-32.72281097 62.73834756 -36.16755925 62.54651742 -41.5625 60.9375 C-46.04083287 58.41334874 -50.01673913 55.04512913 -51.64453125 50.00390625 C-53.11801238 41.69735878 -51.24840677 34.78213729 -46.52734375 27.83203125 C-39.28981665 18.9861648 -29.08185175 13.72834486 -19.0625 8.625 C-18.03576172 8.09261719 -17.00902344 7.56023437 -15.95117188 7.01171875 C-8.4744898 3.15816327 -8.4744898 3.15816327 -5 2 C-11.17110025 1.55119271 -16.58539023 2.40274899 -22.5625 3.8125 C-23.27011475 3.97782227 -23.97772949 4.14314453 -24.70678711 4.31347656 C-28.37362788 5.21480393 -31.83392351 6.29188453 -35.33984375 7.69921875 C-39 9 -39 9 -42 8 C-27.50256879 2.28016982 -15.60400658 -0.34847657 0 0 Z " fill="#DAE5E7" transform="translate(115,121)"/>
<path d="M0 0 C2 1.125 2 1.125 3 3 C2.875 6.5625 2.875 6.5625 2 10 C-1 12 -1 12 -3.6875 11.625 C-4.450625 11.41875 -5.21375 11.2125 -6 11 C-6.33 9.35 -6.66 7.7 -7 6 C-5.35 5.67 -3.7 5.34 -2 5 C-2 6.65 -2 8.3 -2 10 C-1.34 9.67 -0.68 9.34 0 9 C0.04254356 7.00045254 0.04080783 4.99958364 0 3 C-1.00836062 1.76732652 -1.00836062 1.76732652 -3.06640625 1.90234375 C-4.30197266 1.91974609 -4.30197266 1.91974609 -5.5625 1.9375 C-6.38878906 1.94652344 -7.21507812 1.95554687 -8.06640625 1.96484375 C-9.02353516 1.98224609 -9.02353516 1.98224609 -10 2 C-10.309375 2.8353125 -10.309375 2.8353125 -10.625 3.6875 C-12.18182451 6.30579576 -14.12562283 7.70966822 -16.47998047 9.58886719 C-19.07082691 11.99411814 -20.55192561 14.98506834 -22.0625 18.125 C-22.39975098 18.81368164 -22.73700195 19.50236328 -23.08447266 20.21191406 C-28.59731305 32.01798737 -31.28063281 45.14323937 -33 58 C-33.66 57.67 -34.32 57.34 -35 57 C-33.6225132 38.05955656 -27.6563752 15.27435721 -12.9609375 2.18359375 C-8.50921968 -0.97042255 -5.39165061 -1.69149823 0 0 Z " fill="#587480" transform="translate(158,28)"/>
<path d="M0 0 C-1 3 -1 3 -2.7590332 4.05566406 C-3.51531006 4.37245117 -4.27158691 4.68923828 -5.05078125 5.015625 C-5.88883301 5.37591797 -6.72688477 5.73621094 -7.59033203 6.10742188 C-8.48864746 6.48447266 -9.38696289 6.86152344 -10.3125 7.25 C-22.7805823 12.69141947 -33.15109302 18.39077881 -43 28 C-43.66 27.34 -44.32 26.68 -45 26 C-33.92639283 14.71107269 -19.24636986 8.36583481 -5 2 C-11.17110025 1.55119271 -16.58539023 2.40274899 -22.5625 3.8125 C-23.27011475 3.97782227 -23.97772949 4.14314453 -24.70678711 4.31347656 C-28.37362788 5.21480393 -31.83392351 6.29188453 -35.33984375 7.69921875 C-39 9 -39 9 -42 8 C-27.50256879 2.28016982 -15.60400658 -0.34847657 0 0 Z " fill="#BECFD3" transform="translate(115,121)"/>
<path d="M0 0 C0.75732422 0.04833984 1.51464844 0.09667969 2.29492188 0.14648438 C3.08060547 0.20255859 3.86628906 0.25863281 4.67578125 0.31640625 C5.47306641 0.36861328 6.27035156 0.42082031 7.09179688 0.47460938 C9.05764647 0.60409647 11.0230179 0.74080666 12.98828125 0.87890625 C12.98828125 1.20890625 12.98828125 1.53890625 12.98828125 1.87890625 C11.91449219 1.91628906 10.84070313 1.95367187 9.734375 1.9921875 C8.29814505 2.05789737 6.86194863 2.12434293 5.42578125 2.19140625 C4.72130859 2.21396484 4.01683594 2.23652344 3.29101562 2.25976562 C-2.97422575 2.57735851 -8.02669393 3.74118722 -12.44921875 8.50390625 C-14.4494023 12.82430271 -14.71532784 16.1965553 -14.01171875 20.87890625 C-12.45900677 24.94553287 -11.64892473 26.45410227 -8.01171875 28.87890625 C-5.43851527 29.19660174 -5.43851527 29.19660174 -2.63671875 29.12890625 C-1.70085938 29.1340625 -0.765 29.13921875 0.19921875 29.14453125 C3.03226945 29.00866271 3.03226945 29.00866271 5.65234375 27.80078125 C7.98828125 26.87890625 7.98828125 26.87890625 10.98828125 27.87890625 C4.61984464 31.72400006 -0.57571123 32.98180033 -8.01171875 31.87890625 C-12.15951108 30.02721325 -13.59246616 28.59163565 -15.88671875 24.69140625 C-17.60579705 18.8656409 -18.23089866 13.62386239 -15.38671875 8.06640625 C-11.42071192 2.74360761 -6.73740827 -0.45591485 0 0 Z " fill="#D6DEE0" transform="translate(62.01171875,103.12109375)"/>
<path d="M0 0 C3.89286081 4.12879176 5.26581768 6.85625751 5.5 12.5625 C5.34019272 17.95236386 4.35191145 20.92015542 1.0625 25.1875 C-2.79529534 28.81148956 -7.0745038 28.67511306 -12.1328125 28.55859375 C-16.38105751 27.99650005 -19.28759214 26.39121795 -22.9375 24.1875 C-19.9375 23.1875 -19.9375 23.1875 -18.08984375 24.10546875 C-17.37957031 24.46253906 -16.66929687 24.81960937 -15.9375 25.1875 C-11.04243803 25.74922842 -6.46287204 25.81010083 -1.875 23.9375 C0.70666845 21.60567043 1.87858916 19.50114884 2.36328125 16.0390625 C2.38977098 11.00601439 1.93924288 7.50261432 -0.9375 3.1875 C-5.13243326 -0.61415827 -9.11241597 -0.99293972 -14.625 -1.375 C-15.80449219 -1.45878906 -16.98398438 -1.54257813 -18.19921875 -1.62890625 C-19.10285156 -1.68949219 -20.00648438 -1.75007813 -20.9375 -1.8125 C-20.9375 -2.1425 -20.9375 -2.4725 -20.9375 -2.8125 C-13.51201624 -4.18758959 -6.58471054 -4.0629065 0 0 Z " fill="#E0E6E8" transform="translate(192.9375,106.8125)"/>
<path d="M0 0 C0.66 1.32 1.32 2.64 2 4 C1.34515625 4.32871094 0.6903125 4.65742187 0.015625 4.99609375 C-10.71270943 10.58755619 -19.90073074 17.74027272 -28.74609375 25.95703125 C-31.08747 28.0792839 -33.51466416 30.04942778 -36 32 C-33.91989825 27.41653449 -30.7778709 24.39492325 -27.25 20.875 C-26.58693848 20.21209961 -25.92387695 19.54919922 -25.24072266 18.86621094 C-17.60887072 11.40612539 -9.19376031 5.40005252 0 0 Z " fill="#295466" transform="translate(180,53)"/>
<path d="M0 0 C6.54047565 1.50934053 12.40080274 4.00746039 18.375 7 C19.06464844 7.34417969 19.75429687 7.68835938 20.46484375 8.04296875 C27.59107534 11.68278567 27.59107534 11.68278567 30 14 C30.25 17.6875 30.25 17.6875 30 21 C29.34 20.01 28.68 19.02 28 18 C28.33 17.34 28.66 16.68 29 16 C28.31550781 15.74089844 27.63101563 15.48179688 26.92578125 15.21484375 C23.58349669 13.82705937 20.40779164 12.21347642 17.1875 10.5625 C10.27124905 7.06655128 3.77814513 3.97226814 -4 3 C-2.68 2.67 -1.36 2.34 0 2 C0 1.34 0 0.68 0 0 Z " fill="#EBF3F4" transform="translate(86,104)"/>
<path d="M0 0 C15.49492199 0.4804627 28.67676491 2.66407483 43 9 C39.07193605 10.30935465 36.70905656 9.05559842 33 7.6875 C24.03922618 4.54793516 15.54503982 2.63980982 6 3 C7.32 3.99 8.64 4.98 10 6 C7.23723823 5.47731534 4.6739124 4.89130413 2 4 C2 8.29 2 12.58 2 17 C1.01 17 0.02 17 -1 17 C-0.67 11.39 -0.34 5.78 0 0 Z " fill="#B9C8CC" transform="translate(127,120)"/>
<path d="M0 0 C15.88762352 6.15705775 32.57942458 14.45866952 41 30 C41.6640625 32.2734375 41.6640625 32.2734375 42 34 C41.34 34 40.68 34 40 34 C39.525625 32.865625 39.05125 31.73125 38.5625 30.5625 C30.8969121 15.47087381 13.69864901 8.50562612 -1 2 C-0.67 1.34 -0.34 0.68 0 0 Z " fill="#D1E1E3" transform="translate(137,125)"/>
<path d="M0 0 C0.33 0 0.66 0 1 0 C0.69541328 6.33540378 -0.42687716 12.35808923 -1.9375 18.5 C-2.10733398 19.20640625 -2.27716797 19.9128125 -2.45214844 20.640625 C-3.75237573 25.75237573 -3.75237573 25.75237573 -6 28 C-6.99 27.01 -7.98 26.02 -9 25 C-6.03 16.75 -3.06 8.5 0 0 Z " fill="#1B5060" transform="translate(113,134)"/>
<path d="M0 0 C0.33 0 0.66 0 1 0 C1.05399736 1.45792884 1.09279177 2.91642712 1.125 4.375 C1.14820312 5.18710938 1.17140625 5.99921875 1.1953125 6.8359375 C1 9 1 9 -1 11 C-1.66952449 12.57623558 -2.2740534 14.18050161 -2.83984375 15.796875 C-3.18080078 16.7559375 -3.52175781 17.715 -3.87304688 18.703125 C-4.22431641 19.70859375 -4.57558594 20.7140625 -4.9375 21.75 C-9.14230549 33.73252548 -9.14230549 33.73252548 -12 39 C-12.66 38.34 -13.32 37.68 -14 37 C-13.69489502 36.44199707 -13.38979004 35.88399414 -13.07543945 35.30908203 C-9.27539337 28.07582059 -6.68574639 20.6399322 -4.1875 12.875 C-3.78080078 11.63234375 -3.37410156 10.3896875 -2.95507812 9.109375 C-1.9631044 6.07510243 -0.97826049 3.03871566 0 0 Z " fill="#C9DDDF" transform="translate(114,126)"/>
<path d="M0 0 C5.098952 5.4079794 5.098952 5.4079794 5.01953125 9.28515625 C4.77875575 11.26370271 4.42780809 13.22812026 4.0625 15.1875 C3.7325 15.1875 3.4025 15.1875 3.0625 15.1875 C2.96453125 14.59582031 2.8665625 14.00414063 2.765625 13.39453125 C1.81543772 8.37328296 0.90731229 4.81260873 -2.9375 1.1875 C-6.86935207 -0.75063909 -10.39864717 -1.17378165 -14.75 -1.4375 C-15.91144531 -1.51226562 -17.07289063 -1.58703125 -18.26953125 -1.6640625 C-19.14996094 -1.71304688 -20.03039062 -1.76203125 -20.9375 -1.8125 C-20.9375 -2.1425 -20.9375 -2.4725 -20.9375 -2.8125 C-13.51201624 -4.18758959 -6.58471054 -4.0629065 0 0 Z " fill="#C6D1D4" transform="translate(192.9375,106.8125)"/>
<path d="M0 0 C1.58193864 2.37290796 2.53089868 4.11962201 3.5078125 6.72265625 C3.90419922 7.77743164 3.90419922 7.77743164 4.30859375 8.85351562 C4.57800781 9.58248047 4.84742188 10.31144531 5.125 11.0625 C5.40214844 11.79533203 5.67929688 12.52816406 5.96484375 13.28320312 C8 18.74203356 8 18.74203356 8 21 C7.01 21 6.02 21 5 21 C4.67 21.66 4.34 22.32 4 23 C3.3267344 20.10555905 2.66119596 17.20969987 2 14.3125 C1.80921875 13.49587891 1.6184375 12.67925781 1.421875 11.83789062 C0.51266084 7.82760674 -0.27000098 4.14282748 0 0 Z " fill="#275365" transform="translate(129,135)"/>
<path d="M0 0 C0 3.58344991 -0.8582157 4.60509431 -2.875 7.5 C-3.40867188 8.2734375 -3.94234375 9.046875 -4.4921875 9.84375 C-4.98976562 10.5553125 -5.48734375 11.266875 -6 12 C-6.66 12.99 -7.32 13.98 -8 15 C-8.2493357 13.39884424 -8.47378648 11.79379841 -8.6875 10.1875 C-8.81511719 9.29417969 -8.94273438 8.40085937 -9.07421875 7.48046875 C-9 5 -9 5 -7.68359375 3.21484375 C-5.52955712 1.6605389 -3.59788474 1.41019233 -1 1 C-0.67 0.67 -0.34 0.34 0 0 Z " fill="#CAD2D5" transform="translate(133,98)"/>
<path d="M0 0 C0.33 0 0.66 0 1 0 C1.09796875 0.79664063 1.1959375 1.59328125 1.296875 2.4140625 C2.18062779 8.67651764 2.96870243 13.08685609 7 18 C7.66 18.99 8.32 19.98 9 21 C3.0629956 18.43688797 -1.01523804 13.3976813 -3.4375 7.5 C-3.623125 6.675 -3.80875 5.85 -4 5 C-2.68 5.33 -1.36 5.66 0 6 C0 4.02 0 2.04 0 0 Z " fill="#245061" transform="translate(171,197)"/>
<path d="M0 0 C10.55808656 3.07517084 10.55808656 3.07517084 15 5 C14.67 5.99 14.34 6.98 14 8 C13.05640625 7.70996094 13.05640625 7.70996094 12.09375 7.4140625 C6.75783615 5.7907875 1.42240732 4.30539435 -4 3 C-2.68 2.67 -1.36 2.34 0 2 C0 1.34 0 0.68 0 0 Z " fill="#E2EBED" transform="translate(86,104)"/>
<path d="M0 0 C1.4375 2.0625 1.4375 2.0625 2 4 C1.01 3.34 0.02 2.68 -1 2 C-3.28648848 1.75892674 -3.28648848 1.75892674 -5.6875 1.875 C-6.89986328 1.90207031 -6.89986328 1.90207031 -8.13671875 1.9296875 C-8.75160156 1.95289063 -9.36648437 1.97609375 -10 2 C-10.27585938 2.61359375 -10.55171875 3.2271875 -10.8359375 3.859375 C-12.36571191 6.6725172 -14.44752791 8.11923109 -17 10 C-16.67538191 6.9318355 -16.38522664 5.38853331 -14.1796875 3.1640625 C-9.22869579 -0.14219298 -6.01014418 -2.20780807 0 0 Z " fill="#576D7A" transform="translate(158,28)"/>
<path d="M0 0 C1 2 1 2 1.4375 4.5625 C1.623125 5.366875 1.80875 6.17125 2 7 C2.66 7.33 3.32 7.66 4 8 C4.33 6.35 4.66 4.7 5 3 C6.32 3.33 7.64 3.66 9 4 C8.67 5.65 8.34 7.3 8 9 C2.57534247 10.3260274 2.57534247 10.3260274 0.125 8.9375 C-1.45713177 6.21271751 -1.26880582 4.09126692 -1 1 C-0.67 0.67 -0.34 0.34 0 0 Z " fill="#778A92" transform="translate(83,30)"/>
<path d="M0 0 C0.66 0.33 1.32 0.66 2 1 C-0.59598885 3.6539649 -3.20311834 6.29670704 -5.8125 8.9375 C-6.55048828 9.69224609 -7.28847656 10.44699219 -8.04882812 11.22460938 C-8.76103516 11.94326172 -9.47324219 12.66191406 -10.20703125 13.40234375 C-10.8616333 14.06741943 -11.51623535 14.73249512 -12.19067383 15.41772461 C-14 17 -14 17 -17 18 C-15.41244952 13.82898227 -12.32557564 11.31257615 -9.0625 8.4375 C-4.42813943 4.3279701 -4.42813943 4.3279701 0 0 Z " fill="#CCD4D8" transform="translate(156,73)"/>
<path d="M0 0 C0.33 0.66 0.66 1.32 1 2 C1.99 2.33 2.98 2.66 4 3 C-1.96583144 11.81548975 -1.96583144 11.81548975 -7 13 C-6.21625 11.96875 -5.4325 10.9375 -4.625 9.875 C-2.35603148 6.71901262 -1.01464129 3.78184481 0 0 Z " fill="#3B6171" transform="translate(70,205)"/>
<path d="M0 0 C1.7208877 2.58133154 2.4651263 4.12794206 3.2890625 7.01171875 C3.50820312 7.76904297 3.72734375 8.52636719 3.953125 9.30664062 C4.17484375 10.09232422 4.3965625 10.87800781 4.625 11.6875 C4.85445312 12.48478516 5.08390625 13.28207031 5.3203125 14.10351562 C5.88486236 16.0676787 6.44304988 18.03366847 7 20 C6.34 20.33 5.68 20.66 5 21 C4.49440092 19.56445975 3.9957251 18.1264798 3.5 16.6875 C3.2215625 15.88699219 2.943125 15.08648437 2.65625 14.26171875 C2 12 2 12 2 9 C1.34 9 0.68 9 0 9 C0 6.03 0 3.06 0 0 Z " fill="#C0D4D6" transform="translate(128,126)"/>
<path d="M0 0 C-1.53643852 3.68069887 -3.78150945 5.98775204 -6.625 8.75 C-7.85089844 9.94882813 -7.85089844 9.94882813 -9.1015625 11.171875 C-9.72804687 11.77515625 -10.35453125 12.3784375 -11 13 C-11.66 12.67 -12.32 12.34 -13 12 C-2.63106796 0 -2.63106796 0 0 0 Z " fill="#5AB0B1" transform="translate(158,79)"/>
<path d="M0 0 C1.18239258 0.08507812 1.18239258 0.08507812 2.38867188 0.171875 C4.32239961 0.31250974 6.25508595 0.46733888 8.1875 0.625 C8.1875 0.955 8.1875 1.285 8.1875 1.625 C6.54201172 1.71587891 6.54201172 1.71587891 4.86328125 1.80859375 C3.40884346 1.89304498 1.95441695 1.97769066 0.5 2.0625 C-0.22123047 2.10181641 -0.94246094 2.14113281 -1.68554688 2.18164062 C-5.47957282 2.40685678 -9.09901492 2.75339305 -12.8125 3.625 C-13.1425 2.965 -13.4725 2.305 -13.8125 1.625 C-9.11531282 -0.8412586 -5.11098102 -0.42841417 0 0 Z " fill="#B2C0C4" transform="translate(66.8125,103.375)"/>
<path d="M0 0 C0.33 0 0.66 0 1 0 C0.03644647 10.55808656 0.03644647 10.55808656 -1 15 C-1.99 14.67 -2.98 14.34 -4 14 C-3.52188823 12.22888156 -3.0424722 10.45811517 -2.5625 8.6875 C-2.29566406 7.70136719 -2.02882813 6.71523437 -1.75390625 5.69921875 C-1.21920575 3.78482474 -0.62855462 1.88566385 0 0 Z " fill="#375C6B" transform="translate(113,134)"/>
<path d="M0 0 C3.36591866 1.44253657 5.51047079 3.33264727 8 6 C7.01 6.33 6.02 6.66 5 7 C3.17578125 6.00390625 3.17578125 6.00390625 1.3125 4.5625 C0.68988281 4.08941406 0.06726563 3.61632812 -0.57421875 3.12890625 C-1.04472656 2.75636719 -1.51523438 2.38382813 -2 2 C-1.34 1.34 -0.68 0.68 0 0 Z " fill="#2D5A6D" transform="translate(74,61)"/>
<path d="M0 0 C0 0.66 0 1.32 0 2 C1.65 2.33 3.3 2.66 5 3 C2 5 2 5 -1.1875 4.625 C-2.115625 4.41875 -3.04375 4.2125 -4 4 C-4 3.34 -4 2.68 -4 2 C-4.66 1.67 -5.32 1.34 -6 1 C-3 0 -3 0 0 0 Z " fill="#2E5D6D" transform="translate(200,45)"/>
<path d="M0 0 C1.5625 1.1875 1.5625 1.1875 3 3 C2.6875 5.6875 2.6875 5.6875 2 8 C0.68 7.34 -0.64 6.68 -2 6 C-1.34 4.02 -0.68 2.04 0 0 Z " fill="#245667" transform="translate(106,154)"/>
<path d="M0 0 C1.32 0 2.64 0 4 0 C3.67 1.65 3.34 3.3 3 5 C1.68 5 0.36 5 -1 5 C-0.67 3.35 -0.34 1.7 0 0 Z " fill="#1E4F63" transform="translate(152,33)"/>
<path d="M0 0 C2.97 0 5.94 0 9 0 C9 0.66 9 1.32 9 2 C9.99 2.33 10.98 2.66 12 3 C11.67 3.66 11.34 4.32 11 5 C9.72740489 4.54658132 8.45698757 4.08704773 7.1875 3.625 C6.47980469 3.36976562 5.77210938 3.11453125 5.04296875 2.8515625 C3 2 3 2 0 0 Z " fill="#2D5768" transform="translate(180,102)"/>
<path d="M0 0 C1.98 0.495 1.98 0.495 4 1 C4 2.32 4 3.64 4 5 C2.35 4.67 0.7 4.34 -1 4 C-0.67 2.68 -0.34 1.36 0 0 Z " fill="#1B4B5F" transform="translate(88,33)"/>
<path d="M0 0 C1.32 0.33 2.64 0.66 4 1 C0.535 3.97 0.535 3.97 -3 7 C-2.25 2.25 -2.25 2.25 0 0 Z " fill="#9EAEB6" transform="translate(144,31)"/>
<path d="M0 0 C0.66 0.33 1.32 0.66 2 1 C-2.75 6.75 -2.75 6.75 -5 9 C-5 5 -5 5 -2.5 2.25 C-1.675 1.5075 -0.85 0.765 0 0 Z " fill="#DBE1E4" transform="translate(52,106)"/>
<path d="M0 0 C3.3 0 6.6 0 10 0 C10 0.66 10 1.32 10 2 C7.25 2.6875 7.25 2.6875 4 3 C2.68 2.01 1.36 1.02 0 0 Z " fill="#255568" transform="translate(131,122)"/>
<path d="M0 0 C-1.4375 1.5625 -1.4375 1.5625 -4 3 C-7.05380927 2.96846324 -9.99653222 2.53266629 -13 2 C-13 1.67 -13 1.34 -13 1 C-11.20994059 0.63779734 -9.41787943 0.28547531 -7.625 -0.0625 C-6.12839844 -0.35833984 -6.12839844 -0.35833984 -4.6015625 -0.66015625 C-2 -1 -2 -1 0 0 Z " fill="#C3CFD4" transform="translate(193,132)"/>
<path d="M0 0 C0 0.66 0 1.32 0 2 C-1.53125 3.2890625 -1.53125 3.2890625 -3.5 4.625 C-4.1496875 5.07101563 -4.799375 5.51703125 -5.46875 5.9765625 C-5.9740625 6.31429687 -6.479375 6.65203125 -7 7 C-7 6.01 -7 5.02 -7 4 C-2.65714286 0 -2.65714286 0 0 0 Z " fill="#1F5265" transform="translate(57,106)"/>
<path d="M0 0 C0.33 0 0.66 0 1 0 C1.36923077 6.4 1.36923077 6.4 -0.5 9.4375 C-0.995 9.953125 -1.49 10.46875 -2 11 C-2.66 9.02 -3.32 7.04 -4 5 C-2.68 5.33 -1.36 5.66 0 6 C0 4.02 0 2.04 0 0 Z " fill="#2A5B6C" transform="translate(171,197)"/>
<path d="M0 0 C0.99 0 1.98 0 3 0 C3.33 1.32 3.66 2.64 4 4 C3.01 4.66 2.02 5.32 1 6 C0.67 4.02 0.34 2.04 0 0 Z " fill="#305C6C" transform="translate(131,147)"/>
</svg>

